<svg width="871" height="1041" viewBox="0 0 871 1041" fill="none" xmlns="http://www.w3.org/2000/svg">
<g clip-path="url(#clip0_101_2)">
<g filter="url(#filter0_d_101_2)">
<path d="M66 874C66 874 53.9884 861.258 43.9459 852.142C33.805 843.124 15 848.711 15 848.711L66 874Z" fill="#F46352"/>
<path d="M293 1001C293 1001 282.219 995.574 273.089 985.018C263.862 974.463 258.811 970.023 259.005 978.31C259.005 978.31 278.917 996.561 293 1001Z" fill="#F46352"/>
<path d="M97.0051 900.082C97.0051 900.082 96.8054 913.218 98.9026 917C98.9026 917 182.592 916.403 230.629 892.916C230.629 892.916 239.018 886.448 251.301 876.695C251.501 876.496 251.801 876.297 252.1 875.998C263.585 866.942 278.366 855.199 292.946 843.455C295.41 841.465 297.773 839.574 300.037 837.783C301.635 836.489 303.233 835.195 304.731 833.901C304.831 833.802 305.03 833.802 305.13 833.702C308.06 831.314 310.956 828.959 313.819 826.637C349.272 797.677 364.152 756.874 343.779 751.002C331.695 750.703 299.038 783.744 264.684 813.5C248.006 827.831 230.928 841.465 215.449 850.123C168.211 876.496 97.0051 900.082 97.0051 900.082Z" fill="url(#paint0_linear_101_2)"/>
<path d="M0.214715 849C-0.67882 854.271 1.50538 856.161 1.50538 856.161L5.07952 858.946C3.78886 861.332 4.58311 864.018 4.58311 864.018C4.58311 864.018 30.4956 872.969 42.5087 879.533C52.834 885.202 63.2586 899.225 65.7406 902.805C66.0716 903.336 66.237 903.601 66.237 903.601C66.237 903.601 61.0744 905.888 57.401 903.999C55.8125 903.203 53.6283 901.015 50.9477 898.628C47.175 895.346 42.7073 891.666 38.2396 890.672C30.6942 889.08 24.2409 894.749 24.2409 894.749L24.3402 898.628C24.3402 898.628 36.3533 901.214 48.4656 906.584C50.0541 907.247 51.6426 908.01 53.2312 908.872C63.9536 914.342 74.676 922 74.676 922L99 917.922C97.5108 911.06 97.1137 901.015 97.1137 901.015C88.6747 895.843 56.6067 863.023 46.8771 856.459C44.2958 854.669 39.7288 853.277 34.3676 852.282C19.9718 849.497 0.214715 849 0.214715 849Z" fill="url(#paint1_linear_101_2)"/>
<path d="M179.668 909.448C179.668 909.448 217.825 873.331 220 848L176.801 869.967C176.801 869.967 180.953 888.471 151 914C151 914 171.957 911.13 179.668 909.448Z" fill="#FF8500"/>
<g style="mix-blend-mode:multiply" opacity="0.6">
<path d="M264.463 813.602C264.463 813.602 276.53 845.999 251 877C251 877 251 876.9 251.1 876.9C251.199 876.801 251.499 876.601 251.898 876.203C256.485 872.614 276.73 856.466 292.686 843.607C295.146 841.613 297.507 839.719 299.767 837.925C301.363 836.629 302.958 835.333 304.454 834.037C304.554 833.937 304.753 833.937 304.853 833.838C321.508 820.082 347.537 784.296 347.537 784.296C347.537 784.296 350.03 757.282 343.448 751.002C331.381 750.703 298.77 783.797 264.463 813.602Z" fill="#A4006D"/>
</g>
<path d="M602.711 684.276C545 707.834 553.287 699.549 545 703.542L588.034 775.213C588.034 775.213 603.21 799.169 614.692 781.501C614.692 781.501 621.582 775.911 632.765 766.628C632.765 766.628 632.864 766.628 632.964 766.528C633.064 766.329 633.264 766.229 633.364 766.129C649.439 752.853 673.801 732.19 698.563 709.93C699.096 709.398 699.661 708.865 700.26 708.333C728.018 683.378 756.174 656.427 773.447 635.464C773.447 635.464 839.545 522.368 850.029 469.763C860.214 418.755 868.501 342.692 869 338C868.201 342.392 857.018 408.074 844.039 432.031C830.659 456.886 813.885 457.185 807.794 453.193L825.667 479.345C825.667 479.345 805.698 511.488 777.841 542.432C774.745 545.826 771.65 548.92 768.555 551.815C743.494 574.774 718.832 582.859 720.629 622.787C720.629 622.787 660.522 660.619 602.711 684.276Z" fill="url(#paint2_linear_101_2)"/>
<path d="M336.99 773.179C329.011 784.062 303.179 795.446 295 816.315C295 816.315 295 816.348 295 816.415V817.113C295.199 819.61 296.696 827.897 307.467 836.385C320.434 846.57 326.218 841.777 338.187 854.858C349.159 866.74 355.642 879.721 366.513 886.011C366.58 886.078 366.646 886.144 366.713 886.211C367.511 886.677 368.309 887.076 369.106 887.409C369.306 887.476 369.472 887.542 369.605 887.609C370.27 887.875 370.968 888.108 371.7 888.308C371.799 888.308 371.899 888.408 371.999 888.408H372.099C378.781 890.205 387.259 887.809 398.33 882.616C407.805 878.223 419.275 871.832 433.538 864.244C466.253 846.969 489.492 843.774 493.881 843.874C498.369 844.074 521.708 866.74 559.01 874.928C568.186 876.925 577.562 878.023 586.638 878.423H586.738C614.466 879.721 639.6 874.428 649.275 868.937C661.343 862.147 763.377 806.729 820.128 715.564C824.018 709.373 827.609 703.083 831 696.592C831 696.592 827.11 636.381 769.959 539.325C769.959 539.325 757.692 513.863 752.006 489C754.001 498.885 758.09 520.054 759.287 536.729C760.983 559.396 750.211 570.18 741.434 574.174L763.975 573.575C763.975 573.575 772.652 605.328 769.56 639.177C766.469 673.127 765.97 688.704 775.345 693.297C775.345 693.297 667.028 766.289 606.387 776.673L598.607 769.484C598.607 769.484 600.103 754.906 595.016 740.727C589.83 726.448 562.601 702.583 544.349 704.281C526.096 705.978 508.742 757.402 495.676 771.182C482.51 784.861 419.275 766.289 397.432 743.123L398.23 750.512C398.23 750.512 387.259 770.782 367.91 760.497L365.815 751.91C365.815 751.91 352.649 749.913 344.072 751.211C344.072 751.211 344.969 762.195 336.99 773.179Z" fill="url(#paint3_linear_101_2)"/>
<g style="mix-blend-mode:multiply" opacity="0.6">
<path d="M406.809 754.09C406.809 754.09 422.09 777.29 436.771 796.689C451.453 816.089 450.255 830.489 450.255 830.489C450.255 830.489 472.427 825.789 508.083 820.189C543.738 814.689 572.003 812.989 572.003 812.989C572.003 812.989 568.008 779.49 537.346 751.59C506.684 723.59 406.809 754.09 406.809 754.09Z" fill="#A4006D"/>
</g>
<path d="M394.871 731C394.871 731 396.474 739.505 400 746.543C400 746.543 393.803 777.14 366.556 759.544C366.556 759.544 363.671 747.227 361 741.753C361 741.753 375.959 738.234 394.871 731Z" fill="#F46352"/>
<path d="M420.684 769.584C420.684 769.584 458.239 812.012 480.212 814.502C480.212 814.502 495.993 795.977 485.905 771.376C475.818 746.776 436.165 716.299 423.48 716.896C410.795 717.594 407 751.058 407 751.058L420.684 769.584Z" fill="#B12F4F"/>
<path d="M479.834 813.475C479.834 813.475 535.467 817.22 580.594 804.703C580.594 804.703 587.799 776.318 569.588 755.522C551.277 734.726 520.358 716 520.358 716L423 716.887C423 716.887 455.72 729.995 482.536 769.912C495.543 789.328 479.834 813.475 479.834 813.475Z" fill="#9A2542"/>
<path d="M574 762.124L484.7 777C484.7 777 464 735.169 423 716.899L520.3 716C520.3 716 558.4 738.962 574 762.124Z" fill="#D6385F"/>
<path d="M457.339 793.587C457.339 793.587 466.528 781.237 465.329 774.265L458.837 771.675C458.837 771.675 456.44 782.531 450.248 790.001L457.339 793.587Z" fill="#9A2542"/>
<path d="M458.339 773.568C458.339 773.568 446.353 746.876 417.587 728.649L422.082 729.047C422.082 729.047 445.953 740.601 465.33 774.265L458.339 773.568Z" fill="#D6385F"/>
<path d="M553.524 811.315C553.524 811.315 562.713 786.216 551.327 765.799C539.941 745.381 500.987 716.199 500.987 716.199L487.004 716.299C487.004 716.299 529.353 741.098 542.238 766.595C555.023 792.092 546.333 812.311 546.333 812.311L553.524 811.315Z" fill="#481A0B"/>
<path d="M506.88 814.9C506.88 814.9 516.968 794.383 506.78 773.269C496.593 752.253 453.145 716.598 453.145 716.598L439.761 716.797C439.761 716.797 492.198 751.058 499.889 774.464C507.579 797.869 500.188 815 500.188 815L506.88 814.9Z" fill="#481A0B"/>
<path d="M352.883 616.477C352.15 617.276 351.484 618.009 350.884 618.675C340.491 630.963 329.098 652.841 326.399 655.839C323.701 658.736 312.008 658.836 305.012 665.829C298.316 672.522 296.817 695 297.017 708.287C297.117 713.183 297.517 716.679 297.916 717.878C299.615 722.374 299.715 725.97 324.001 737.259C345.488 747.149 374.37 743.753 394.658 730.965C397.256 729.367 399.755 727.569 402.053 725.67C412.947 716.38 426.838 697.898 432.435 676.319C433.834 671.124 434.634 665.629 434.933 660.134C435.533 646.548 432.135 632.361 422.441 618.974C413.446 606.686 404.552 600.493 396.157 598.095C377.368 592.9 361.078 607.386 352.883 616.477Z" fill="url(#paint4_linear_101_2)"/>
<path style="mix-blend-mode:multiply" opacity="0.5" d="M352.9 616.477C353.6 615.778 366.1 604.089 385.9 620.173C406.3 636.657 423.4 664.93 415.4 689.306C407.4 713.582 383.9 721.175 376.5 719.976C369.1 718.777 340.1 693.802 340.1 693.802C340.1 693.802 355.7 719.976 375.5 727.569C375.5 727.569 362.1 739.557 352.3 740.056C352.3 740.056 346.7 713.782 340.6 705.59L297 708.287C297.1 713.183 297.5 716.679 297.9 717.878C299.6 722.374 299.7 725.97 324 737.259C345.5 747.149 374.4 743.753 394.7 730.965C395.633 730.233 396.5 729.467 397.3 728.668C397.3 728.668 401.6 720.076 412.4 708.787C419 701.794 427.2 686.808 432.5 676.319C435.8 669.825 438 665.03 438 665.03L435 660.134L396.2 598.095C377.4 592.9 361.1 607.386 352.9 616.477Z" fill="url(#paint5_radial_101_2)"/>
<path d="M351.069 619C351.069 619 356.061 630.327 349.992 648C349.992 648 352.146 638.04 345 627.007C345 627.007 348.034 620.953 351.069 619Z" fill="url(#paint6_linear_101_2)"/>
<path d="M372.252 644.292L370.654 653.691C370.654 653.691 382.739 658.891 389.231 666.691C395.723 674.391 401.316 685.091 401.316 685.091C401.316 685.091 401.116 670.192 396.122 664.792C390.529 658.592 382.639 649.692 372.252 644.292Z" fill="url(#paint7_linear_101_2)"/>
<path d="M215.69 972.696C214.598 976.306 216.881 978.211 216.881 978.211C216.881 978.211 227.008 980.417 231.476 980.618C235.943 980.718 247.162 982.924 247.162 982.924C247.162 982.924 234.057 983.125 230.185 983.425C226.313 983.827 205.761 991.648 205.761 991.648C204.173 994.155 205.563 996.963 205.563 996.963L207.648 997.665C207.648 997.665 207.946 1001.18 212.215 1002.68C216.484 1004.18 237.631 1003.68 247.857 1006.59C257.488 1009.3 270.295 1017.12 271.784 1018.12L271.983 1018.22C271.983 1018.22 271.884 1018.19 271.685 1018.12C271.553 1018.06 271.42 1017.99 271.288 1017.92C269.203 1017.22 263.345 1015.21 258.878 1014.81C258.679 1014.81 258.481 1014.71 258.282 1014.71C257.885 1014.71 257.587 1014.71 257.289 1014.71C256.892 1014.71 256.594 1014.71 256.296 1014.81C251.233 1015.31 232.667 1022.03 232.667 1022.03C232.866 1024.54 236.44 1027.85 236.44 1027.85C250.042 1026.65 263.544 1028.85 263.544 1028.85C263.544 1028.85 277.741 1038.88 293.031 1040.79C295.811 1041.09 298.591 1041.09 301.271 1040.69C313.781 1039.18 325 1032.06 325 1032.06C323.809 1021.53 316.462 1013.91 316.462 1013.91C298.591 1006.49 259.176 976.205 246.964 971.191C246.236 970.857 245.607 970.657 245.077 970.59C234.752 968.484 215.69 972.696 215.69 972.696Z" fill="url(#paint8_linear_101_2)"/>
<path d="M751.879 484.193C752.145 485.727 752.478 487.227 752.877 488.693C752.478 486.593 752.078 485.093 751.879 484.193Z" fill="url(#paint9_linear_101_2)"/>
<path d="M751 483.645C751 483.645 722.64 391.556 638.358 503C638.358 503 585.632 457.405 537 448.825C537 448.825 578.741 421.986 643.151 416C643.151 416 668.915 428.671 706.962 439.945C740.714 449.922 746.906 466.983 751 483.645Z" fill="url(#paint10_linear_101_2)"/>
<path d="M683 457.263C687.887 461.564 691.776 466.466 694.868 471.568H694.968C706.636 490.774 708.232 513.081 717.906 519.183C723.79 522.784 728.477 526.485 731.569 531.587C735.06 536.988 736.755 543.991 736.456 554.294C735.758 574.1 741.742 574 741.742 574C759.992 567.698 764.68 542.79 758.297 509.48C755.006 492.274 750.717 480.37 747.326 472.868C747.326 472.868 747.227 472.568 746.928 472.068C745.83 469.667 744.833 467.766 744.035 466.266C743.836 465.999 743.636 465.699 743.437 465.366C742.34 463.565 741.742 462.765 741.742 462.765C718.704 429.754 685.294 455.363 683.1 457.163C683.1 457.163 683 457.163 683 457.263Z" fill="url(#paint11_linear_101_2)"/>
<path d="M713 0C714.702 3.0024 742.738 53.2426 772.676 109.488C772.676 109.554 772.709 109.654 772.776 109.788C801.412 163.431 831.551 222.378 842.364 250.801C854.88 284.227 848.572 317.054 840.562 340.472C840.495 340.539 840.495 340.572 840.562 340.572C834.254 358.687 826.945 371.297 826.544 374.199C825.543 380.805 834.454 399.82 834.755 405.324C834.955 410.729 820.837 424.54 814.129 436.549C807.52 448.459 808.521 454.363 808.521 454.363C808.521 454.363 817.933 463.171 825.443 458.767C830.349 456.065 845.869 444.055 857.283 412.73C857.283 412.73 857.283 412.63 857.283 412.43C863.692 394.616 868.798 370.697 869.899 338.671C872.803 249.7 811.826 98.0785 811.826 98.0785C776.781 97.1777 715.603 3.90312 713 0Z" fill="url(#paint12_linear_101_2)"/>
<path d="M810.731 98.1L804 97C804 97 878.731 240.998 861.112 395.996C861.112 395.996 898.428 298.097 810.731 98.1Z" fill="url(#paint13_linear_101_2)"/>
<path d="M366.48 887.018C366.547 887.085 366.614 887.151 366.68 887.218C367.679 887.718 368.579 888.218 369.578 888.617C376.872 891.716 385.864 889.417 398.354 883.62C407.846 879.223 419.337 872.826 433.625 865.231C466.399 847.941 489.68 844.742 494.076 844.842C498.572 845.042 521.953 867.729 559.323 875.925C568.515 877.923 577.907 879.023 587 879.423C524.951 865.031 517.057 823.155 485.983 826.153C455.008 829.051 346.297 871.627 366.48 887.018Z" fill="url(#paint14_linear_101_2)"/>
<path d="M441.641 815C441.641 815 449.413 823.8 455.191 847.8C460.87 871.699 480 977.798 480 977.798C480 977.798 445.726 1002.7 396.906 1017.4C348.185 1032.1 325.568 1032 325.568 1032C325.568 1032 318.893 1027.6 317 1013.9C317 1013.9 362.931 996.298 386.644 980.398C410.356 964.598 426.397 947.198 426.397 947.198C426.397 947.198 424.006 899.699 409.46 862.199C392.323 818.1 441.641 815 441.641 815Z" fill="url(#paint15_linear_101_2)"/>
<path d="M451 995.33C451 995.33 415.371 976.766 379.043 985.195L350 999.945C350 999.945 367.465 992.018 401.897 1016C401.897 1016 429.642 1007.67 451 995.33Z" fill="url(#paint16_linear_101_2)"/>
<path d="M665 861C665 861 719.216 793.72 700.812 739.397L754.431 708C754.431 708 775.023 742.687 743.29 804.584C743.29 804.584 704.195 839.67 665 861Z" fill="url(#paint17_linear_101_2)"/>
<path d="M687.983 720C687.983 720 662.796 679.73 617 679.332L675.837 650C675.837 650 716.456 649.901 729 682.415L687.983 720Z" fill="#FF8500"/>
<path d="M387.034 699.491C387.034 699.491 374.749 706.891 366.859 704.091C359.068 701.291 356.172 691.891 356.671 686.391C357.371 678.891 362.364 671.291 362.364 671.291L368.457 668.491C368.457 668.491 382.539 681.591 387.034 699.491Z" fill="#FFD7D0"/>
<path d="M387.033 699.491C387.033 699.491 382.839 681.491 366.958 669.991L362.364 671.291L360.566 662.791L364.062 667.991L368.756 665.591C368.756 665.591 381.54 674.491 387.033 699.491Z" fill="#754328"/>
<path d="M341.59 663.591C341.59 663.591 338.294 665.791 334.1 665.591C329.905 665.391 327.408 664.891 327.408 664.891C327.408 664.891 327.807 652.091 336.197 642.991C336.197 642.991 344.187 648.691 341.59 663.591Z" fill="#FFD7D0"/>
<path d="M341.59 663.591C341.59 663.591 342.988 651.091 336.696 643.491L334.399 645.691L330.404 637.292L335.398 642.191L337.995 640.191C337.995 640.191 344.387 647.691 341.59 663.591Z" fill="#754328"/>
<path style="mix-blend-mode:multiply" opacity="0.5" d="M330.996 682.849C330.996 682.849 331.124 684.61 329.886 686C329.886 686 327.665 683.961 325.529 682.571C323.351 681.181 322.625 680.07 322.625 680.07L321.856 678.494L321.002 677.382C321.002 677.382 320.916 675.853 321.941 674.602C321.941 674.602 321.13 676.27 321.899 677.892C321.899 677.892 322.112 676.085 323.436 674C323.436 674 322.112 677.475 324.333 680.394C326.554 683.266 328.135 683.591 329.373 684.517C330.569 685.444 330.996 682.849 330.996 682.849Z" fill="url(#paint18_radial_101_2)"/>
<path style="mix-blend-mode:multiply" opacity="0.3" d="M316.943 670.18C314.533 673.622 317.612 678.294 323.77 680.606C329.928 682.917 336.889 682.032 339.299 678.589C341.641 675.147 338.629 670.475 332.471 668.164C326.247 665.852 319.353 666.787 316.943 670.18Z" fill="url(#paint19_radial_101_2)"/>
<path d="M331.098 682.153C331.098 682.153 334.694 677.453 329 678.053L331.098 682.153Z" fill="#FFD7D0"/>
<path d="M366.859 704.091C366.859 704.091 375.648 684.791 359.568 676.491C359.568 676.491 347.982 696.391 366.859 704.091Z" fill="url(#paint20_linear_101_2)"/>
<path d="M335.598 665.591C335.598 665.591 337.096 654.891 331.503 649.791C331.503 649.791 327.108 656.991 327.408 664.891C327.408 664.891 331.503 666.691 335.598 665.591Z" fill="url(#paint21_linear_101_2)"/>
<path d="M373.55 691.591C373.55 691.591 370.354 694.891 366.16 692.591C366.16 692.591 369.056 690.991 373.55 691.591Z" fill="white"/>
<path d="M337.496 660.791C337.496 660.791 335.298 662.791 332.202 661.291C332.202 661.291 334.2 659.991 337.496 660.791Z" fill="white"/>
<path d="M335 702.939C335 702.939 334.212 715.417 318.164 725C318.164 725 293.452 710.426 284 697.749C284 697.749 286.166 682.176 295.322 669L335 702.939Z" fill="url(#paint22_linear_101_2)"/>
<path d="M335.369 702.939L340.923 706.033C340.923 706.033 342.51 713.52 331.304 724.101L318.412 725C318.412 725 331.899 713.72 335.369 702.939Z" fill="#361430"/>
<path d="M340 706L302.745 673.687L295 669L333.627 703.806L340 706Z" fill="#61396C"/>
<path d="M318.015 698.746C318.015 698.746 318.808 705.135 310.081 713.62L306.115 712.722C306.115 712.722 313.85 704.636 315.04 697.549L318.015 698.746Z" fill="#361430"/>
<path d="M315.04 697.549L297.388 682.077L299.371 683.075L318.015 698.747L315.04 697.549Z" fill="#61396C"/>
<path fill-rule="evenodd" clip-rule="evenodd" d="M211.739 759.616C205.042 751.903 202.743 745.292 204.642 739.382C206.441 733.973 211.639 729.866 218.736 726.56C211.239 698.112 206.641 665.957 224.434 651.333C266.117 617.175 306.6 664.755 307 665.256L304.401 667.46C302.902 665.557 265.717 621.783 226.533 653.937C210.44 667.159 214.938 698.312 221.835 725.258C231.131 721.451 242.926 718.747 253.922 716.343C267.916 713.137 282.31 709.932 285.209 705.324C295.505 689.097 305.701 694.606 306.1 694.906L304.501 697.811C304.201 697.611 296.504 693.704 288.008 707.127C284.309 712.837 270.615 715.942 254.721 719.548C243.626 722.052 231.731 724.757 222.635 728.463C224.634 735.776 226.733 742.788 228.532 748.898C234.33 768.03 236.129 774.742 232.631 776.645C231.231 777.446 229.232 777.045 225.434 773.84C222.335 771.336 218.037 766.828 211.739 759.616ZM225.334 749.799C223.534 743.689 221.435 736.878 219.536 729.866C213.538 732.67 209.24 736.076 207.841 740.383C206.341 744.991 208.441 750.801 214.238 757.412C226.133 771.035 229.832 773.339 231.031 773.64C231.731 771.135 228.332 759.816 225.334 749.799Z" fill="#6A2E92"/>
<g style="mix-blend-mode:multiply" opacity="0.6">
<path d="M336 755.847C336 755.847 339.005 757.486 336.801 775.928C334.598 794.37 361.944 818.549 389.992 815.782C418.04 813.119 411.228 761.994 401.712 749.085L397.505 745.089L394.4 733C394.4 733 377.871 743.655 362.645 744.27L365.751 754.105C365.751 754.105 353.229 752.056 343.914 753.388C343.914 753.388 338.705 754.105 336 755.847Z" fill="#D9D1D6"/>
</g>
<g style="mix-blend-mode:multiply" opacity="0.5">
<path d="M398.819 883.389C398.819 883.389 409.705 861.089 406.21 847.089L414.399 875.489L398.819 883.389Z" fill="#A4006D"/>
</g>
<path d="M372.152 889.088C371.686 889.021 371.187 888.921 370.654 888.788C371.753 889.288 372.352 889.188 372.452 889.188C372.352 889.188 372.252 889.088 372.152 889.088Z" fill="#A4006D"/>
<g style="mix-blend-mode:multiply" opacity="0.5">
<path d="M295 817V817.699C295.199 820.196 296.693 828.484 307.45 836.972C320.397 847.158 326.174 842.364 338.125 855.446C349.081 867.329 355.555 880.311 366.41 886.602C366.477 886.669 366.543 886.735 366.61 886.802C367.406 887.268 368.203 887.667 369 888C365.713 886.003 359.339 880.311 348.483 863.934C330.755 837.172 309.242 836.073 302.669 830.98C296.494 826.187 295.199 817.899 295 817Z" fill="#A4006D"/>
</g>
<g style="mix-blend-mode:multiply" opacity="0.5">
<path d="M368.956 831.889C368.956 831.889 349.48 841.389 328.107 833.389C328.107 833.389 353.176 835.689 368.956 831.889Z" fill="#A4006D"/>
</g>
<path style="mix-blend-mode:multiply" opacity="0.8" d="M426.784 947.288C426.784 947.288 441.266 942.388 454.549 959.188C454.549 959.188 445.66 933.888 425.785 935.588L426.784 947.288Z" fill="url(#paint23_linear_101_2)"/>
<path style="mix-blend-mode:multiply" opacity="0.8" d="M325 1030C325 1030 417.9 1014.36 480 978C480 978 416.6 1023.96 325 1030Z" fill="url(#paint24_linear_101_2)"/>
<g style="mix-blend-mode:multiply" opacity="0.6">
<path d="M632.627 804.089C632.627 804.089 598.07 766.69 576.098 755.09L596.073 761.99C596.073 761.99 597.072 735.39 573.601 715.69C573.601 715.69 621.142 743.29 632.827 767.99L617.047 777.39L632.627 804.089Z" fill="#A4006D"/>
</g>
<path style="mix-blend-mode:multiply" opacity="0.8" d="M625.137 865.689C625.137 865.689 650.605 844.089 643.813 822.389C643.813 822.389 639.619 847.989 625.137 865.689Z" fill="url(#paint25_linear_101_2)"/>
<path style="mix-blend-mode:multiply" opacity="0.8" d="M776.348 693.791C776.348 693.791 782.84 700.791 812.503 701.691C812.503 701.691 781.442 715.291 758.57 705.291L776.348 693.791Z" fill="url(#paint26_linear_101_2)"/>
<path style="mix-blend-mode:multiply" opacity="0.8" d="M831 694C831 694 806.627 737.601 735.705 790.323C664.683 843.045 649 867 649 867C649 867 776.26 800.847 831 694Z" fill="url(#paint27_linear_101_2)"/>
<path style="mix-blend-mode:multiply" opacity="0.8" d="M717.947 625.373C717.947 625.373 729.54 629.827 726.043 648.336C722.645 666.746 631.699 766.317 630 768C630 768 630.1 768 630.2 767.901C630.3 767.703 630.5 767.604 630.6 767.505C635.097 763.942 662.381 742.068 695.861 711.781C696.394 711.253 696.96 710.725 697.56 710.197C719.946 689.808 745.131 665.756 767.818 640.913C767.818 640.913 776.113 574.004 765.919 555C740.834 577.765 716.148 585.782 717.947 625.373Z" fill="url(#paint28_linear_101_2)"/>
<path style="mix-blend-mode:multiply" opacity="0.8" d="M718.52 519.693C724.413 523.293 729.107 526.993 732.203 532.093C732.902 532.493 743.888 539.393 749.581 535.993C755.374 532.493 754.175 509.993 754.175 509.993C754.175 509.993 735.399 523.993 718.52 519.693Z" fill="url(#paint29_linear_101_2)"/>
<path style="mix-blend-mode:multiply" opacity="0.8" d="M695.549 472.094C695.549 472.094 725.512 443.694 747.983 473.394C747.983 473.394 730.306 425.994 683.564 457.794L695.549 472.094Z" fill="url(#paint30_linear_101_2)"/>
<path style="mix-blend-mode:multiply" opacity="0.8" d="M825.886 373.895C824.887 380.495 833.776 399.495 834.076 404.995C841.467 412.195 856.548 412.395 856.548 412.395C856.548 412.395 856.548 412.295 856.548 412.095C857.047 410.295 858.346 401.295 845.562 393.495C831.279 384.795 825.886 373.895 825.886 373.895Z" fill="url(#paint31_linear_101_2)"/>
<path style="mix-blend-mode:multiply" opacity="0.8" d="M843.065 236.397C824.288 202.897 775.349 115.098 772.253 109.699C800.818 163.298 830.88 222.197 841.667 250.597C854.151 283.996 847.859 316.796 839.869 340.195C840.768 339.695 864.338 327.296 863.439 311.996C862.541 296.396 862.441 270.896 843.065 236.397Z" fill="url(#paint32_linear_101_2)"/>
<path style="mix-blend-mode:multiply" opacity="0.8" d="M764.962 573.893L767.759 562.593C767.759 562.593 771.555 584.793 769.058 594.793L764.962 573.893Z" fill="url(#paint33_linear_101_2)"/>
<path style="mix-blend-mode:multiply" opacity="0.5" d="M51.2524 899.188C53.8491 903.088 53.949 906.988 53.5495 909.488C64.3361 914.988 75.1226 922.688 75.1226 922.688L66.6332 904.188C66.6332 904.188 61.4397 906.488 57.7443 904.588C56.1463 903.788 53.949 901.588 51.2524 899.188Z" fill="url(#paint34_linear_101_2)"/>
<path style="mix-blend-mode:multiply" opacity="0.5" d="M0.215563 849C-0.681498 854.29 1.51132 856.187 1.51132 856.187L5.09956 858.982C3.80381 861.377 4.60119 864.072 4.60119 864.072C4.60119 864.072 30.616 873.055 42.6764 879.643C53.0425 885.333 63.5082 899.407 66 903C63.3088 899.007 51.5474 881.64 46.2647 877.248C40.1846 872.357 36.098 863.773 36.098 863.773H42.8758L37.4934 859.78C37.4934 859.78 34.2042 856.686 34.5032 852.294C20.0506 849.499 0.215563 849 0.215563 849Z" fill="url(#paint35_linear_101_2)"/>
<path style="mix-blend-mode:multiply" opacity="0.5" d="M271.677 1017.99C269.58 1017.29 263.687 1015.29 259.193 1014.89C263.288 1015.49 269.48 1017.29 271.677 1017.99Z" fill="url(#paint36_linear_101_2)"/>
<path style="mix-blend-mode:multiply" opacity="0.5" d="M255.766 1015C250.673 1015.5 232 1022.17 232 1022.17C232.2 1024.66 235.794 1027.94 235.794 1027.94C249.475 1026.75 263.055 1028.94 263.055 1028.94C263.055 1028.94 277.334 1038.9 292.712 1040.79C295.508 1041.09 298.304 1041.09 301 1040.69C289.417 1039.79 264.453 1027.55 264.453 1027.55C264.453 1027.55 252.47 1015.6 255.766 1015Z" fill="url(#paint37_linear_101_2)"/>
<path style="mix-blend-mode:multiply" opacity="0.5" d="M254.171 985.991L247.298 983C247.298 983 234.151 983.199 230.266 983.499C226.382 983.897 205.764 991.675 205.764 991.675C204.17 994.168 205.565 996.96 205.565 996.96L207.656 997.658C207.656 997.658 207.955 1001.15 212.238 1002.64C216.521 1004.14 237.737 1003.64 247.996 1006.53C257.657 1009.23 270.506 1017 272 1018L256.661 1006.43C256.661 1006.43 248.892 994.268 247.796 990.778C246.701 987.288 247.498 984.795 247.498 984.795L254.171 985.991Z" fill="url(#paint38_linear_101_2)"/>
<path style="mix-blend-mode:multiply" opacity="0.5" d="M215.747 972.887C214.649 976.487 216.946 978.387 216.946 978.387C216.946 978.387 227.133 980.587 231.627 980.787C236.122 980.887 247.408 983.087 247.408 983.087C244.911 978.087 247.208 971.387 247.208 971.387C246.475 971.054 245.843 970.854 245.31 970.787C234.923 968.687 215.747 972.887 215.747 972.887Z" fill="url(#paint39_linear_101_2)"/>
<g style="mix-blend-mode:multiply" opacity="0.5">
<path d="M207.657 997.787C207.657 997.787 231.028 991.487 235.423 991.287C239.917 990.987 254.199 993.287 254.199 993.287C254.199 993.287 239.318 990.087 234.424 990.287C229.63 990.387 207.657 997.787 207.657 997.787Z" fill="#A4006D"/>
</g>
<g style="mix-blend-mode:soft-light">
<path d="M209.854 1001.39C209.854 1001.39 216.546 1000.29 216.746 998.387C216.946 996.387 207.657 997.787 207.657 997.787C207.657 997.787 208.057 1000.39 209.854 1001.39Z" fill="#F1D9E0"/>
</g>
<g style="mix-blend-mode:soft-light">
<path d="M206.658 996.787C206.658 996.787 215.348 993.687 214.748 990.587C214.449 989.087 206.559 991.787 206.559 991.787C206.559 991.787 204.961 994.987 206.658 996.787Z" fill="#F1D9E0"/>
</g>
<g style="mix-blend-mode:soft-light">
<path d="M217.845 976.987C217.845 976.987 222.539 976.487 222.738 973.987C223.038 971.587 215.747 972.887 215.747 972.887C215.747 972.887 215.747 975.987 217.845 976.987Z" fill="#F1D9E0"/>
</g>
<g style="mix-blend-mode:soft-light">
<path d="M232.826 1022.09C232.826 1022.09 240.916 1019.89 241.615 1021.49C242.314 1023.09 236.421 1026.69 236.421 1026.69C236.421 1026.69 233.425 1025.29 232.826 1022.09Z" fill="#F1D9E0"/>
</g>
<g style="mix-blend-mode:multiply" opacity="0.5">
<path d="M5.10992 859.288C5.10992 859.288 26.8828 860.888 35.9714 863.088C45.0601 865.288 48.356 867.588 48.356 867.588C48.356 867.588 31.6768 857.788 5.10992 859.288Z" fill="#A4006D"/>
</g>
<g style="mix-blend-mode:soft-light">
<path d="M4.41077 862.189C4.41077 862.189 13.4994 863.789 16.4957 862.189C19.492 860.589 5.10989 859.289 5.10989 859.289L4.41077 862.189Z" fill="#F1D9E0"/>
</g>
<g style="mix-blend-mode:soft-light">
<path d="M0.116272 853.589C0.116272 853.589 11.0027 853.089 11.5021 850.989C11.9016 848.989 0.216146 849.289 0.216146 849.289L0.116272 853.589Z" fill="#F1D9E0"/>
</g>
<g style="mix-blend-mode:soft-light">
<path d="M24.4857 899.188C24.4857 899.188 34.3734 901.988 33.9739 898.888C33.5744 895.788 24.3859 895.288 24.3859 895.288L24.4857 899.188Z" fill="#F1D9E0"/>
</g>
<g style="mix-blend-mode:soft-light" opacity="0.6">
<path d="M725 446.434C725 446.434 700.414 436.488 663.535 471C663.535 471 588.177 463.143 548 443.152C548 443.152 590.676 420.973 644.346 416C644.346 416 666.733 426.841 725 446.434Z" fill="white"/>
</g>
<g style="mix-blend-mode:soft-light" opacity="0.3">
<path d="M450.055 826.09C450.055 826.09 433.875 840.79 419.693 833.59C405.411 826.49 408.207 789.79 417.396 786.29C426.684 782.89 445.461 808.39 450.055 826.09Z" fill="white"/>
</g>
<g style="mix-blend-mode:soft-light" opacity="0.3">
<path d="M631.828 817.09C631.329 832.39 607.958 824.99 596.073 814.29C584.088 803.69 578.495 767.49 582.59 765.89C586.585 764.29 632.727 795.19 631.828 817.09Z" fill="white"/>
</g>
<path d="M499.487 513C499.487 513 524.597 480.794 500.284 452.088C475.971 423.483 468 430.084 468 430.084C468 430.084 490.818 381.175 537.152 408.08C583.586 434.985 579.799 459.89 572.824 483.494C565.949 507.199 506.661 512.4 499.487 513Z" fill="url(#paint40_linear_101_2)"/>
<path d="M471 405.116C471 405.116 469.602 400.535 455.623 448.835C441.744 497.135 405 474.23 405 474.23C405 474.23 444.54 516.455 461.514 483.292C474.295 458.396 456.821 441.167 471 405.116Z" fill="url(#paint41_linear_101_2)"/>
<path d="M359 611.264C359 611.264 360.199 604.868 360.899 570.892C361.598 537.015 368.893 514.73 460.128 514.73C551.463 514.73 567.051 496.143 572.448 465.464C580.642 418.596 500.899 391.015 479.214 419.396C457.53 447.676 479.114 483.252 451.134 495.643C423.254 508.135 395.674 461.267 395.674 461.267C395.674 461.267 428.051 508.535 452.034 491.646C476.016 474.858 455.331 434.485 471.32 405.405C487.408 376.225 585.039 379.423 578.843 469.461C578.843 469.461 629.207 570.992 607.623 628.452C585.938 685.913 547.465 689.01 547.465 689.01C547.465 689.01 525.681 717.391 498.101 727.384C470.42 737.377 445.738 723.487 445.738 723.487C445.738 723.487 436.145 701.802 412.762 709.397C412.762 709.397 426.652 689.21 426.452 669.124C426.252 649.038 412.562 636.846 412.562 636.846L415.959 635.347L396.573 623.356L397.273 621.257L394.375 621.957C394.375 621.957 383.882 614.762 378.886 601.471C378.886 601.471 366.595 603.369 359 611.264Z" fill="url(#paint42_linear_101_2)"/>
<path d="M355.435 615C355.435 615 359.13 602.895 339.458 578.085C319.785 553.274 303.109 530.265 322.881 508.756C342.553 487.247 409.06 511.757 452 514.759L425.038 523.062C425.038 523.062 406.064 520.661 370.914 506.155C335.663 491.749 307.303 517.96 316.889 538.769C326.476 559.477 366.42 578.685 359.13 611.298L355.435 615Z" fill="url(#paint43_linear_101_2)"/>
<path style="mix-blend-mode:multiply" opacity="0.5" d="M401.903 626.398C401.903 626.398 415.189 601.798 445.657 591.398C476.126 580.998 503.398 583.498 510.191 622.898C516.984 662.299 521.279 689.499 547.552 688.999C547.552 688.999 518.182 702.7 501.899 691.999C485.516 681.299 484.617 647.799 458.744 633.799C432.871 619.698 416.088 635.299 416.088 635.299L401.903 626.398Z" fill="url(#paint44_linear_101_2)"/>
<path style="mix-blend-mode:multiply" opacity="0.5" d="M415.489 639.699C415.489 639.699 436.467 626.198 466.536 664.399C496.605 702.7 485.816 730.5 520.78 714.9C520.78 714.9 504.896 725 496.905 718.7C488.913 712.4 481.321 684.399 461.541 663.999C441.762 643.499 418.186 642.699 418.186 642.699L415.489 639.699Z" fill="url(#paint45_linear_101_2)"/>
<path style="mix-blend-mode:multiply" opacity="0.5" d="M420.983 647.799C420.983 647.799 436.067 656.999 437.666 678.899C439.164 700.9 454.248 732.2 484.617 730.6C484.617 730.6 469.033 734.4 445.857 723.5C422.781 712.6 412.891 709.4 412.891 709.4C412.891 709.4 435.268 676.199 420.983 647.799Z" fill="url(#paint46_linear_101_2)"/>
<path style="mix-blend-mode:multiply" opacity="0.5" d="M379.026 601.398C379.026 601.398 367.538 579.698 374.631 550.597C381.823 521.497 430.773 518.797 460.242 514.597C460.242 514.597 410.793 517.397 386.019 531.497C361.245 545.497 369.836 593.098 365.74 605.998L379.026 601.398Z" fill="url(#paint47_linear_101_2)"/>
<path style="mix-blend-mode:multiply" opacity="0.5" d="M612.885 601.298C612.885 601.298 587.711 674.199 553.446 669.599C519.281 664.999 531.868 610.698 496.705 582.898C461.441 555.097 397.407 621.198 397.407 621.198C397.407 621.198 459.243 553.297 500.301 581.698C541.358 609.998 528.272 655.699 562.537 657.199C596.901 658.799 612.984 596.598 612.984 596.598L612.885 601.298Z" fill="url(#paint48_linear_101_2)"/>
<path style="mix-blend-mode:multiply" opacity="0.5" d="M393.112 620.799C393.112 620.799 385.32 594.498 400.504 561.897C400.504 561.897 375.63 586.098 393.112 620.799Z" fill="url(#paint49_linear_101_2)"/>
<path style="mix-blend-mode:multiply" opacity="0.5" d="M578.92 469.296C578.92 469.296 577.721 494.597 558.441 512.397C539.161 530.198 486.116 513.997 460.242 514.597C460.242 514.597 499.602 518.997 537.163 532.298C574.724 545.498 599.598 511.197 578.92 469.296Z" fill="url(#paint50_linear_101_2)"/>
<path style="mix-blend-mode:multiply" opacity="0.5" d="M547.552 689C547.552 689 523.177 689.7 516.684 656.299C516.684 656.299 510.191 685.3 522.478 692.3C534.865 699.4 547.552 689 547.552 689Z" fill="url(#paint51_linear_101_2)"/>
<path style="mix-blend-mode:multiply" opacity="0.5" d="M605.992 542.497C605.992 542.497 619.178 593.398 591.806 630.899C591.806 630.899 615.082 601.698 601.097 526.397L605.992 542.497Z" fill="url(#paint52_linear_101_2)"/>
<path d="M395.298 622.05C402.987 611.049 411.775 600.947 421.561 591.746C431.346 582.745 442.231 574.644 454.613 569.643C460.804 567.143 467.295 565.443 473.985 565.243C480.576 564.943 487.266 566.043 493.457 568.543C499.549 570.943 505.241 574.744 510.233 579.144C515.226 583.445 519.52 588.746 524.014 593.646C533.001 603.648 541.788 613.849 550.576 623.95C559.463 634.052 567.951 644.553 578.036 653.554C583.029 657.855 588.821 661.955 595.611 662.756C599.006 663.256 602.401 662.956 605.697 662.155C607.294 661.755 608.892 661.055 610.29 660.155C611.688 659.155 612.986 658.055 613.885 656.655C615.882 653.854 616.681 650.454 616.88 647.053C617.18 643.753 616.88 640.353 616.381 637.052C615.283 630.351 613.286 623.95 610.689 617.75C613.286 623.95 615.183 630.451 616.281 637.052C616.781 640.353 617.08 643.753 616.781 647.053C616.481 650.354 615.682 653.754 613.785 656.555C612.786 657.855 611.588 659.055 610.19 659.955C608.792 660.755 607.294 661.555 605.597 661.855C602.401 662.655 599.006 662.956 595.711 662.456C589.02 661.655 583.229 657.555 578.236 653.154C568.35 644.153 559.862 633.652 551.075 623.55C542.387 613.349 533.6 603.148 524.713 593.046C520.219 588.146 515.925 582.845 510.833 578.444C505.84 573.944 500.148 570.043 493.857 567.543C487.566 565.043 480.676 563.742 473.885 564.043C467.095 564.243 460.405 565.943 454.114 568.443C441.532 573.444 430.448 581.645 420.562 590.746C410.676 599.847 401.789 610.049 394 621.05L395.298 622.05Z" fill="url(#paint53_linear_101_2)"/>
<path d="M392.997 618.166C401.083 607.403 410.267 597.338 420.25 588.368C430.332 579.399 441.413 571.327 453.792 566.045C459.981 563.354 466.47 561.56 473.158 560.862C476.453 560.563 479.847 560.663 483.141 561.062C486.336 561.66 489.63 562.557 492.625 563.952C498.714 566.742 504.205 570.729 509.196 575.313C514.188 579.798 518.78 584.781 523.172 589.963C531.957 600.327 539.743 611.39 547.63 622.452C555.516 633.514 563.203 644.775 572.487 654.741C574.883 657.233 577.279 659.625 579.974 661.717C582.669 663.81 585.465 665.803 588.759 666.999C591.953 668.096 595.348 668.893 598.742 668.993C602.136 669.092 605.73 668.195 608.425 666.003C611.12 663.81 612.618 660.522 613.317 657.233C614.115 653.944 614.115 650.456 613.816 647.068C613.117 640.39 611.32 633.614 607.726 627.833C611.22 633.614 613.017 640.39 613.716 647.068C614.015 650.456 613.916 653.944 613.117 657.233C612.418 660.422 610.821 663.611 608.225 665.803C605.63 667.896 602.136 668.694 598.742 668.594C595.447 668.494 592.053 667.697 588.959 666.501C582.57 664.109 577.578 659.126 572.986 654.343C563.802 644.277 556.215 633.016 548.428 621.953C540.642 610.792 532.855 599.63 524.17 589.166C519.778 583.884 515.186 578.801 510.095 574.217C505.103 569.632 499.513 565.447 493.224 562.557C490.129 561.062 486.735 560.065 483.341 559.467C479.847 558.969 476.453 558.869 472.959 559.168C466.071 559.866 459.382 561.66 453.093 564.35C440.315 569.632 429.034 577.705 418.852 586.774C408.57 595.843 399.286 605.809 391 616.771L392.997 618.166Z" fill="url(#paint54_linear_101_2)"/>
<path d="M416.395 635.798C424.566 630.303 433.733 625.906 443.099 622.609C452.465 619.412 462.33 617.513 472.294 618.013C482.158 618.412 491.824 621.61 499.994 627.305C503.98 630.203 507.467 633.8 509.958 638.096C512.449 642.293 513.944 647.089 514.542 652.085C515.738 661.976 514.143 672.068 513.047 682.06C512.449 687.056 512.051 692.052 512.35 697.148C512.649 702.143 513.844 707.439 517.033 711.436C518.528 713.534 520.52 715.233 522.613 716.632C524.705 718.03 526.997 719.129 529.488 719.629C531.979 720.229 534.67 720.129 537.061 719.129C539.452 718.23 541.445 716.532 543.139 714.633C546.427 710.836 548.52 706.14 550.313 701.444C552.007 696.648 553.203 691.752 554 686.756C553.203 691.752 551.908 696.648 550.114 701.344C548.42 706.04 546.228 710.636 542.84 714.433C541.246 716.332 539.253 717.831 536.862 718.73C534.57 719.729 532.079 719.829 529.588 719.229C527.196 718.63 525.004 717.531 522.912 716.132C520.819 714.733 518.926 713.134 517.531 711.136C514.442 707.139 513.346 702.044 513.047 697.148C512.848 692.152 513.346 687.156 513.944 682.16C515.14 672.168 516.933 662.076 515.738 651.885C515.14 646.889 513.745 641.793 511.154 637.397C508.563 632.9 504.976 629.104 500.891 626.106C492.521 620.111 482.557 616.714 472.394 616.114C462.131 615.515 451.967 617.313 442.401 620.611C432.736 623.808 423.569 628.104 415 633.7L416.395 635.798Z" fill="url(#paint55_linear_101_2)"/>
<path d="M382.523 606.198C381.524 593.898 383.322 581.098 388.317 569.698C393.112 558.297 401.603 548.297 412.292 542.097C417.686 539.097 423.78 537.597 429.974 536.597C436.167 535.697 442.461 535.397 448.754 535.297C461.341 535.197 473.928 536.297 486.515 537.197C499.102 538.097 511.689 538.997 524.376 538.997C536.963 538.797 549.95 537.897 561.737 532.997C563.236 532.497 564.535 531.597 566.033 530.897C567.332 530.097 568.63 529.197 569.929 528.297C572.726 526.697 574.924 524.397 577.321 522.197C581.617 517.597 584.814 511.897 586.212 505.697C587.711 499.496 587.311 492.996 585.912 486.796C584.514 480.696 582.116 474.696 578.92 469.296C582.116 474.796 584.414 480.696 585.813 486.896C587.111 492.996 587.411 499.497 585.912 505.597C584.514 511.797 581.217 517.297 576.922 521.897C574.624 523.997 572.426 526.297 569.629 527.797C568.331 528.697 567.032 529.597 565.733 530.397C564.335 531.097 562.936 531.897 561.438 532.397C549.75 537.197 536.963 537.997 524.376 537.997C511.789 537.997 499.202 536.897 486.615 535.897C474.028 534.897 461.441 533.797 448.754 533.697C442.361 533.697 436.067 533.997 429.674 534.897C423.48 535.897 417.087 537.297 411.393 540.397C400.204 546.797 391.413 557.097 386.319 568.798C381.124 580.598 379.126 593.598 380.025 606.498L382.523 606.198Z" fill="url(#paint56_linear_101_2)"/>
<path d="M377.549 602C377.849 598.112 377.05 594.723 376.252 591.234C375.353 587.845 374.156 584.555 372.958 581.265C370.462 574.786 367.268 568.605 363.775 562.524C362.177 559.534 360.281 556.643 358.484 553.652L352.894 544.98C350.998 542.089 349.401 539.098 348.303 535.908C347.105 532.818 346.506 529.429 347.205 526.338C347.903 523.248 350 520.557 352.794 518.862C355.589 517.067 358.883 515.971 362.177 515.173C368.765 513.578 375.753 513.279 382.54 513.18C396.315 513.08 410.09 514.476 423.766 516.27C430.62 517.2 437.441 518.23 444.228 519.36C451.116 520.557 457.904 521.553 464.891 521.952C478.666 523.049 492.64 522.55 506.216 520.058C519.891 517.566 533.267 513.279 545.245 506.202C551.134 502.713 556.724 498.526 561.416 493.442C566.007 488.358 569.8 482.078 570 475C569.8 482.078 565.907 488.358 561.316 493.342C556.624 498.426 551.034 502.513 545.045 506.002C533.067 512.881 519.691 517.067 506.116 519.46C492.541 521.753 478.666 522.151 464.891 521.055C458.003 520.557 451.216 519.46 444.428 518.363C437.64 517.167 430.819 516.071 423.965 515.074C410.29 513.18 396.415 511.684 382.54 511.585C375.653 511.684 368.666 511.983 361.778 513.479C358.384 514.276 354.99 515.373 351.896 517.267C348.802 519.161 346.206 522.251 345.408 525.94C344.509 529.528 345.208 533.217 346.406 536.606C347.604 539.896 349.201 543.086 351.098 545.976L356.687 554.749C358.484 557.739 360.281 560.63 361.878 563.621C365.272 569.602 368.366 575.783 370.762 582.162C371.96 585.352 373.157 588.542 373.856 591.832C374.655 595.122 375.353 598.611 375.054 601.601L377.549 602Z" fill="url(#paint57_linear_101_2)"/>
<path d="M481 395C474.781 397.789 470.268 403.367 467.258 409.443C464.35 415.518 463.246 422.391 463.146 429.164C463.046 435.937 463.948 442.71 465.553 449.185C466.255 452.472 467.058 455.759 467.86 458.946C468.562 462.133 469.164 465.42 469.465 468.707C470.167 475.082 469.866 481.855 467.058 487.532C465.553 490.421 463.447 492.811 460.739 494.405C458.03 495.999 454.821 496.796 451.611 496.995C445.091 497.493 438.571 495.7 432.453 493.21C426.234 490.72 420.517 487.134 415 483.249C420.216 487.632 425.833 491.317 431.951 494.305C438.07 497.094 444.69 499.186 451.711 498.987C455.222 498.887 458.733 498.09 461.842 496.198C464.851 494.405 467.459 491.716 469.064 488.628C472.274 482.253 472.574 475.082 471.973 468.408C471.672 465.022 470.97 461.735 470.167 458.448C469.365 455.161 468.562 451.874 467.76 448.687C466.155 442.312 465.252 435.738 465.152 429.164C464.951 422.59 465.854 415.917 468.362 409.941C470.869 403.865 475.082 398.287 481 395Z" fill="url(#paint58_linear_101_2)"/>
<path d="M420.583 646.999C421.083 646.699 422.182 646.499 423.081 646.699C423.98 646.999 424.979 647.299 425.878 647.899C427.576 649.099 429.174 650.699 430.473 652.499C433.17 656.199 435.168 660.399 437.066 664.599C440.663 673.099 443.16 682.099 445.657 691.099C448.155 699.999 450.652 709.1 455.447 717.3C457.945 721.2 461.141 724.8 464.938 727.6C468.734 730.3 473.229 731.8 477.724 733C473.329 731.7 468.833 730.1 465.137 727.3C461.441 724.5 458.444 720.9 456.047 716.9C451.451 708.8 449.154 699.699 446.856 690.699C444.559 681.699 442.261 672.599 438.765 663.899C436.966 659.499 435.068 655.199 432.271 651.299C430.873 649.299 429.174 647.399 427.176 645.999C425.079 644.599 422.282 643.399 419.285 644.899L420.583 646.999Z" fill="url(#paint59_linear_101_2)"/>
<path d="M338 628.616C338 628.616 325.576 653.876 321.663 656.738C317.75 659.698 311.88 658.909 311.88 658.909L302 652.199C302 652.199 306.598 633.845 315.989 622.004L338 628.616Z" fill="#FF6832"/>
<path fill-rule="evenodd" clip-rule="evenodd" d="M351.951 651.007C367.358 663.57 404 692.985 404 692.985C404 692.985 394.123 711.63 377.63 722C377.63 722 361.432 716.815 339.605 693.782C339.605 693.782 343.358 674.139 332 666.661C330.025 665.265 324.395 666.262 316.099 665.265L300 652.104C300 652.104 306.716 630.267 316.889 619C316.889 619 336.543 638.443 351.951 651.007ZM303.062 651.904L317.481 663.67C324.691 662.473 332.494 663.271 332.494 663.271C343.556 670.849 342.667 693.184 342.667 693.184C361.136 713.226 377.333 716.815 377.333 716.815C392.741 705.348 397.975 692.885 397.975 692.885C367.753 674.239 316.494 623.487 316.494 623.487C305.432 636.449 303.062 651.904 303.062 651.904Z" fill="#FFD64D"/>
<path d="M338.074 628.364L317 619C317 619 365.254 666.617 403.857 692.916L414 697C414 697 357.868 649.184 338.074 628.364Z" fill="#FFF663"/>
<path d="M378.493 722.844C378.493 722.844 392.675 724.145 401.602 719.238C410.627 714.331 415.189 697.807 415.189 697.807L404.974 693.701C404.974 693.701 398.329 708.723 378.493 722.844Z" fill="#FF6832"/>
<path opacity="0.7" d="M378.096 718.236C378.096 718.236 361.831 714.531 343.284 694.502C343.284 694.502 339.317 671.368 333.168 664.458C333.168 664.458 325.333 663.557 317.993 664.859L305.397 653.943C305.397 653.943 307.084 638.32 318.291 625.201C318.291 625.201 367.385 673.171 398.924 694.201C398.924 694.201 393.568 706.72 378.096 718.236Z" fill="#8EDEFF"/>
<path d="M419.851 707.922C419.851 707.922 411.024 704.717 400.511 701.112L404.974 693.701C404.974 693.701 418.264 694.802 426 708.322L419.851 707.922Z" fill="url(#paint60_linear_101_2)"/>
<path d="M419.493 706.891C419.493 706.891 443.863 703.491 445.76 723.491C447.159 737.891 421.59 753.691 407.308 745.791C392.926 737.991 398.819 724.191 398.819 724.191C398.819 724.191 411.703 707.991 419.493 706.891Z" fill="url(#paint61_linear_101_2)"/>
<path style="mix-blend-mode:multiply" opacity="0.5" d="M410.704 716.091C410.704 716.091 427.983 716.091 435.473 722.591C442.964 729.091 436.472 737.591 430.879 741.391C430.879 741.391 435.273 730.891 430.18 723.591C430.18 723.591 426.285 733.09 421.191 736.19C415.998 739.29 407.508 734.69 406.21 732.19C404.911 729.79 406.21 726.291 406.21 726.291C406.21 726.291 413.501 726.99 416.797 723.49C420.092 719.99 413.501 715.791 410.704 716.091Z" fill="url(#paint62_linear_101_2)"/>
<path style="mix-blend-mode:multiply" opacity="0.5" d="M410.704 716.091C410.704 716.091 418.494 717.491 417.595 722.191C416.696 726.991 406.21 726.291 406.21 726.291C406.21 726.291 404.811 733.291 413.201 735.491C421.491 737.691 431.977 727.391 425.286 717.891C425.286 717.891 415.098 715.691 410.704 716.091Z" fill="url(#paint63_linear_101_2)"/>
<path style="mix-blend-mode:screen" opacity="0.3" d="M403.313 519.193C403.313 519.193 398.32 523.693 405.71 529.793C413.001 535.893 421.591 532.893 433.276 551.093C445.061 569.392 437.571 569.892 440.966 577.092C444.362 584.292 464.138 586.792 464.138 586.792C464.138 586.792 446.659 589.192 436.472 595.092C436.472 595.092 447.558 587.592 444.262 584.392C441.066 581.192 438.07 582.792 432.777 563.093C427.383 543.293 415.398 538.993 402.614 534.193C389.93 529.393 391.728 522.393 391.728 522.393L403.313 519.193Z" fill="url(#paint64_linear_101_2)"/>
<path style="mix-blend-mode:screen" opacity="0.3" d="M612.752 601.292C612.752 601.292 618.445 583.092 605.361 565.492C592.378 547.993 591.978 557.293 576.997 541.193C562.015 525.093 570.305 521.393 571.404 509.893C572.402 498.393 551.728 499.593 551.728 499.593C551.728 499.593 562.215 493.993 566.11 484.693C566.11 484.693 563.913 490.493 562.914 494.593C561.916 498.593 569.906 498.293 572.702 505.993C575.598 513.593 564.013 521.893 577.995 537.393C591.978 552.893 602.265 548.693 608.657 560.992C608.657 560.992 617.446 580.892 612.752 601.292Z" fill="url(#paint65_linear_101_2)"/>
<g style="mix-blend-mode:soft-light">
<path d="M601.181 590.096C601.68 590.895 602.179 591.794 602.478 592.693C602.777 593.591 602.777 594.99 602.777 595.988C602.977 598.585 602.478 601.381 601.381 603.678C600.483 605.476 599.285 607.274 597.091 607.274C595.395 607.274 594.397 606.175 593.1 605.077C590.905 603.279 588.91 600.982 587.613 598.485C586.815 596.987 585.817 595.189 585.717 593.392C585.617 592.093 585.617 590.695 585.717 589.397C585.917 587.299 587.114 584.603 588.81 583.305C589.508 582.805 590.306 582.605 591.105 582.406C592.002 582.206 592.501 581.707 593.299 581.407C595.095 580.708 596.891 580.708 598.088 582.306C598.986 583.404 599.186 584.703 599.585 586.001C600.084 587.599 600.782 589.097 601.181 590.096Z" fill="#95BBF9"/>
<path d="M579.931 592.792C580.13 591.594 580.529 590.495 579.731 589.497C579.232 588.798 578.634 588.098 577.935 587.399C577.337 586.8 576.04 586.101 575.142 586.7C574.643 587.1 573.845 588.198 573.546 588.798C572.847 590.395 573.246 592.193 573.346 593.791C573.446 595.089 573.945 596.288 575.142 596.887C576.04 597.287 577.237 597.686 578.135 597.087C578.933 596.488 579.432 595.289 579.931 594.49C580.13 594.091 580.429 593.891 580.629 593.492C581.327 592.593 580.928 591.594 580.629 590.495L579.931 592.792Z" fill="#95BBF9"/>
<path d="M590.107 560.634C590.406 561.433 590.905 562.332 591.105 563.231C591.404 564.33 591.404 565.528 591.504 566.627C591.903 569.822 591.903 573.618 590.007 576.414C588.112 579.21 584.62 577.712 582.724 575.815C582.225 575.315 581.926 574.716 581.527 574.117C581.128 573.518 580.629 573.018 580.43 572.219C580.03 571.021 579.731 569.822 579.232 568.624C578.833 567.226 578.833 565.927 578.933 564.629C579.033 563.231 578.534 562.632 577.935 561.533C577.137 560.135 576.439 558.537 575.641 557.139C575.242 556.34 574.843 555.641 574.344 554.942C573.945 554.242 573.745 553.543 573.346 552.944C572.747 552.045 571.85 551.446 571.051 550.747C570.054 549.948 569.156 549.249 568.058 548.55C566.163 547.351 563.868 546.353 562.272 544.655C560.177 542.558 558.181 538.163 560.775 535.766C561.773 534.867 563.27 535.067 564.267 535.567C566.263 536.465 567.859 537.664 569.355 539.262C571.151 541.259 572.947 543.356 575.042 545.154C577.437 547.152 580.23 548.65 582.624 550.647C584.42 552.045 586.416 553.444 587.613 555.441C589.009 557.638 589.608 559.636 590.107 560.634Z" fill="#95BBF9"/>
<path d="M574.045 566.526C573.746 564.829 573.546 562.731 571.85 561.833C571.251 561.433 569.355 561.133 568.657 561.733C568.158 562.132 568.457 562.631 568.657 563.131C568.857 563.93 568.956 564.729 569.056 565.628C569.355 568.025 571.152 569.922 573.446 570.621C574.345 570.921 575.143 571.121 575.243 570.022C575.342 569.023 574.843 568.224 574.644 567.325C574.444 566.926 574.644 566.127 574.245 565.827L574.045 566.526Z" fill="#95BBF9"/>
<path d="M584.021 631.642C584.321 632.741 584.62 633.839 584.62 634.938C584.72 636.336 584.72 637.634 584.52 639.033C584.221 641.03 583.822 642.728 581.727 643.327C579.731 643.926 578.334 644.526 576.339 643.727C574.543 643.027 572.648 641.929 571.151 640.631C568.258 638.034 566.961 634.039 563.27 632.441C560.975 631.442 558.68 629.645 556.984 627.847C554.191 624.851 551.697 621.156 550.001 617.46C548.504 614.364 547.706 610.869 548.803 607.473C549.103 606.375 549.901 605.376 550.899 604.976C551.697 604.777 552.694 604.777 553.493 604.877C554.49 604.877 555.188 605.476 556.186 605.875C557.284 606.275 558.182 606.674 559.079 607.373C560.277 608.372 561.474 609.071 562.671 610.07C564.866 611.668 567.161 612.766 569.455 614.165C571.85 615.663 574.045 617.76 575.94 619.757C576.738 620.656 577.636 621.255 578.534 622.054C579.432 622.953 580.33 623.952 581.028 624.951C581.727 626.049 582.525 627.048 582.924 628.246C583.323 629.645 583.323 631.043 584.021 631.642Z" fill="#95BBF9"/>
<path d="M464.899 553.543C462.605 548.65 459.312 543.456 454.124 541.459C451.73 540.46 449.136 540.26 446.642 540.66C444.447 540.96 442.651 541.459 440.456 541.259C439.359 541.159 437.563 540.86 436.665 541.659C435.867 542.258 435.967 543.956 436.067 544.855C436.166 548.35 437.463 551.246 439.558 554.143C440.855 555.84 442.053 557.538 443.749 558.837C445.644 560.235 447.54 561.633 449.735 562.532C451.93 563.531 454.424 564.929 456.818 565.328C458.115 565.528 459.512 565.428 460.709 564.629C461.607 564.03 462.405 563.131 463.203 562.432C464.001 561.833 464.7 561.233 465.199 560.434C465.697 559.536 466.096 558.437 466.096 557.438C465.897 555.741 464.6 554.143 464.899 553.543Z" fill="#95BBF9"/>
<path d="M447.739 534.268C448.038 534.668 449.635 536.865 449.136 537.864C448.837 538.663 447.34 537.964 446.741 537.864C445.544 537.764 444.148 537.864 443.05 537.564C441.753 537.264 440.556 536.665 439.658 535.666C438.361 534.069 437.663 531.871 439.758 530.573C440.855 529.874 442.751 529.674 443.948 529.974C446.143 530.373 447.839 531.772 449.435 533.17L447.739 534.268Z" fill="#95BBF9"/>
<path d="M534.437 394.25C537.729 395.049 540.523 397.047 543.017 399.344C545.411 401.741 549.701 405.036 549.402 408.832C549.202 411.928 545.611 412.127 543.216 411.828C539.026 411.328 535.235 409.83 531.244 408.432C528.318 407.433 525.425 406.401 522.565 405.336C519.173 404.138 515.481 402.939 511.89 402.54C509.096 402.24 506.203 402.839 503.509 403.339C501.414 403.738 499.718 403.339 497.623 402.939C496.725 402.739 495.628 402.639 494.929 401.841C493.832 400.742 494.231 398.944 494.829 397.646C495.727 395.748 497.623 394.85 499.518 394.15C503.808 392.353 508.398 391.454 513.087 391.254C518.474 391.054 523.762 390.755 529.05 391.354C530.746 391.554 532.741 391.654 534.237 392.453C534.537 392.652 534.936 392.952 535.235 393.252C535.534 393.551 535.634 394.051 534.437 394.25Z" fill="#95BBF9"/>
<path d="M812.388 623.952C815.68 631.043 817.776 638.533 820.17 645.924C822.365 652.715 823.562 659.506 825.158 666.397C825.757 668.994 826.356 671.591 826.755 674.187C826.854 674.887 827.353 676.484 826.555 676.984C825.956 677.383 824.659 676.784 824.061 676.484C820.469 674.587 816.778 674.887 812.787 674.687C810.093 674.487 808.397 674.387 805.903 673.089C802.511 671.191 800.117 668.395 798.321 664.799C795.727 659.706 797.224 653.913 799.718 649.02C800.416 647.721 800.915 646.623 801.813 645.524C802.711 644.426 803.01 643.327 803.708 642.229C805.105 640.031 807.001 638.533 808.198 636.236C809.794 632.741 810.093 629.145 808.597 625.75C808.098 624.651 807.2 624.052 806.602 623.053C806.103 622.154 805.903 620.456 805.604 619.358C805.105 617.261 805.504 615.563 805.504 613.366C805.404 611.568 805.105 609.571 804.806 607.773C804.706 606.874 804.706 605.875 804.507 604.976C804.407 604.477 804.207 603.179 803.808 602.979C803.609 603.378 805.903 608.172 806.203 608.871C807.001 611.168 808.098 613.366 808.597 615.763C808.996 617.96 809.794 619.857 810.493 621.955C810.991 623.652 812.089 625.35 812.388 623.952Z" fill="#95BBF9"/>
<path d="M798.82 626.548C799.418 622.254 800.017 617.96 797.622 614.065C796.425 611.967 795.228 610.669 792.834 611.068C789.94 611.568 789.841 612.966 789.142 615.563C788.743 616.861 788.344 618.159 787.845 619.458C787.346 620.856 786.449 622.054 785.95 623.353C785.551 624.451 785.551 625.949 785.351 627.048C785.152 628.446 785.551 629.145 786.349 630.344C787.746 632.441 790.04 634.538 792.734 634.239C795.029 633.939 797.223 632.94 798.92 631.342C801.913 628.646 800.017 623.153 799.518 619.757L798.82 626.548Z" fill="#95BBF9"/>
<path d="M706.635 438.992C702.744 439.891 699.152 441.289 695.361 442.488C692.667 443.287 690.273 444.186 687.679 445.184C684.886 446.183 682.99 447.781 680.596 449.479C678.301 451.177 675.807 452.275 673.911 454.473C672.415 456.27 670.918 458.068 668.723 459.266C665.132 461.464 660.742 462.362 656.651 461.364C653.259 460.565 650.765 458.068 648.171 455.771C645.677 453.674 642.884 452.275 640.389 450.178C636.598 446.982 633.306 443.587 630.113 439.692C626.921 435.797 627.719 432.101 629.016 427.607C630.014 424.112 633.506 421.215 636.598 419.517C640.09 417.72 644.48 416.122 648.57 416.821C652.761 417.52 655.654 420.616 659.645 422.414C665.531 425.11 671.317 427.307 676.605 430.903C682.092 434.698 688.577 437.494 695.261 436.895C697.456 436.695 699.452 436.596 701.547 437.195C703.742 437.894 704.041 438.493 706.635 438.992Z" fill="#95BBF9"/>
<path d="M642.285 459.965C640.789 457.568 638.095 452.874 634.304 454.871C632.408 455.87 632.109 457.568 633.007 459.166C633.805 460.464 635.601 460.864 637.097 461.163C638.195 461.363 641.786 461.962 642.684 461.263C642.485 460.864 642.352 460.431 642.285 459.965Z" fill="#95BBF9"/>
<path d="M617.343 441.489C615.747 442.288 614.051 442.621 612.255 442.488C611.657 441.589 609.861 439.891 609.961 438.693C610.16 437.394 612.155 436.196 613.053 435.796C613.851 435.397 615.448 434.698 616.146 434.698C618.541 434.897 617.742 439.891 617.742 441.09L617.343 441.489Z" fill="#95BBF9"/>
<path d="M637.397 491.224C636.299 489.626 634.304 485.432 631.411 485.532C629.914 485.631 629.216 487.229 629.814 488.528C630.114 489.327 630.612 489.427 631.111 490.026C631.51 490.525 631.211 491.024 631.81 491.524C632.608 492.223 635.202 492.622 635.7 491.424L637.397 491.224Z" fill="#95BBF9"/>
<path d="M590.008 527.277C588.478 528.01 586.848 528.343 585.119 528.276C586.216 526.578 582.624 524.481 584.919 522.484C587.214 520.586 588.91 524.281 589.509 525.979L590.008 527.277Z" fill="#95BBF9"/>
<path d="M558.581 672.888C555.388 670.192 552.794 667.495 548.504 669.892C546.11 671.39 544.114 673.687 545.312 676.483C546.609 679.979 550.4 680.279 553.493 679.28C554.789 678.88 556.186 678.481 557.284 677.482C558.78 676.084 558.182 675.085 557.383 673.387L558.581 672.888Z" fill="#95BBF9"/>
<path d="M789.641 573.617C788.444 571.82 787.446 569.822 785.65 568.824C784.952 568.424 784.453 568.424 783.655 567.725C782.757 567.026 781.859 566.826 780.961 566.227C779.864 565.628 779.265 564.529 778.667 563.431C777.27 560.734 775.973 557.738 775.873 554.742C775.773 553.743 775.774 552.445 775.973 551.546C776.073 551.047 775.674 549.948 776.771 549.848C777.869 549.648 778.766 551.945 779.166 552.644C780.762 555.74 782.458 558.637 784.154 561.633C785.95 564.929 786.848 568.924 789.342 571.82C789.242 572.02 789.142 572.119 789.641 573.617Z" fill="#95BBF9"/>
<path d="M619.638 695.259C619.937 700.153 620.037 705.845 615.747 709.241C611.357 712.737 604.174 713.835 599.186 711.338C595.594 709.541 591.204 708.043 588.112 705.646C585.617 703.748 585.717 699.454 587.114 696.957C591.304 689.566 600.383 689.866 607.367 687.369C610.26 686.271 613.951 684.873 616.845 686.071C621.234 687.869 622.531 693.362 619.638 695.259Z" fill="#95BBF9"/>
<path d="M569.854 718.429C568.158 715.832 566.961 713.036 563.469 713.935C561.274 714.534 559.877 716.431 560.476 718.729C561.075 720.826 562.771 722.324 564.367 723.722C566.063 725.22 567.36 727.218 568.757 729.115C570.253 731.113 576.439 738.204 578.634 733.31C580.429 729.415 577.337 725.02 575.242 722.124C573.845 720.127 571.85 717.93 569.754 716.731C568.757 716.132 567.559 716.032 566.861 715.133L569.854 718.429Z" fill="#95BBF9"/>
</g>
<path d="M833 696C833 696 829.506 660.399 804.552 611.835C779.597 563.27 762.628 523.282 753.944 488.678C745.16 454.075 723 445 723 445C723 445 742.864 447.593 752.646 480.002C762.428 512.512 777.002 548.711 800.858 593.985C824.715 639.258 830.105 669.673 833 696Z" fill="#95BBF9"/>
<path d="M833.962 521C833.962 521 868.825 437.577 867.742 325.716C866.855 230.019 812 98 812 98C812 98 928.605 287.796 833.962 521Z" fill="#95BBF9"/>
<path d="M573.26 489.633C573.26 489.633 577.527 480.8 578.023 471.968C578.023 471.968 589.336 494.595 594 507C594 507 583.58 476.037 578.42 465.815C578.42 465.815 583.779 447.158 568.794 419.47C553.809 391.682 517.191 381.262 490 392.377C490 392.377 532.573 376.598 563.137 415.103C590.328 449.54 573.26 489.633 573.26 489.633Z" fill="#95BBF9"/>
<path d="M712 441C712 441 686.39 436.136 667.257 428.096C648.224 420.055 643.54 415.687 643.54 415.687C643.54 415.687 622.016 416.184 598 423.827C598 423.827 620.421 414.794 644.935 414C644.935 414 671.442 429.783 712 441Z" fill="#95BBF9"/>
<g style="mix-blend-mode:multiply" opacity="0.2">
<path d="M383.361 669.291L371.463 667.291L392.76 684.091L402.859 686.091L383.361 669.291Z" fill="#E0006D"/>
</g>
<g style="mix-blend-mode:multiply" opacity="0.2">
<path d="M344.867 634.292L334.569 634.892L328.369 629.192L340.668 630.692L344.867 634.292Z" fill="#E0006D"/>
</g>
<path style="mix-blend-mode:multiply" opacity="0.3" d="M353.938 705.714C349.616 710.763 355.139 717.615 366.184 721.005C377.229 724.395 389.714 723.097 394.036 718.048C398.238 712.999 392.836 706.147 381.791 702.757C370.626 699.367 358.26 700.737 353.938 705.714Z" fill="url(#paint66_radial_101_2)"/>
<path style="mix-blend-mode:multiply" opacity="0.3" d="M318.984 656.742C317.477 659.725 319.403 663.774 323.256 665.777C327.109 667.78 331.464 667.013 332.972 664.03C334.438 661.046 332.553 656.997 328.7 654.994C324.806 652.991 320.492 653.801 318.984 656.742Z" fill="url(#paint67_radial_101_2)"/>
<circle cx="364.464" cy="689.891" r="1" fill="#B0E8FF"/>
<circle cx="332.969" cy="658.391" r="0.5" fill="#B0E8FF"/>
</g>
</g>
<defs>
<filter id="filter0_d_101_2" x="-4" y="0" width="879" height="1049" filterUnits="userSpaceOnUse" color-interpolation-filters="sRGB">
<feFlood flood-opacity="0" result="BackgroundImageFix"/>
<feColorMatrix in="SourceAlpha" type="matrix" values="0 0 0 0 0 0 0 0 0 0 0 0 0 0 0 0 0 0 127 0" result="hardAlpha"/>
<feOffset dy="4"/>
<feGaussianBlur stdDeviation="2"/>
<feComposite in2="hardAlpha" operator="out"/>
<feColorMatrix type="matrix" values="0 0 0 0 0 0 0 0 0 0 0 0 0 0 0 0 0 0 0.25 0"/>
<feBlend mode="normal" in2="BackgroundImageFix" result="effect1_dropShadow_101_2"/>
<feBlend mode="normal" in="SourceGraphic" in2="effect1_dropShadow_101_2" result="shape"/>
</filter>
<linearGradient id="paint0_linear_101_2" x1="421.277" y1="1236.06" x2="626.579" y2="1028.64" gradientUnits="userSpaceOnUse">
<stop stop-color="#8D4192"/>
<stop offset="1" stop-color="#361430"/>
</linearGradient>
<linearGradient id="paint1_linear_101_2" x1="36.8497" y1="911.06" x2="71.7588" y2="875.914" gradientUnits="userSpaceOnUse">
<stop stop-color="#FE875E"/>
<stop offset="1" stop-color="#FFA774"/>
</linearGradient>
<linearGradient id="paint2_linear_101_2" x1="1202.39" y1="1386.51" x2="1561.04" y2="1025.27" gradientUnits="userSpaceOnUse">
<stop stop-color="#381437"/>
<stop offset="1" stop-color="#5E229D"/>
</linearGradient>
<linearGradient id="paint3_linear_101_2" x1="743.03" y1="1269.84" x2="1137.95" y2="872.777" gradientUnits="userSpaceOnUse">
<stop stop-color="#6E3098"/>
<stop offset="1" stop-color="#361430"/>
</linearGradient>
<linearGradient id="paint4_linear_101_2" x1="395.058" y1="817.081" x2="508.447" y2="702.951" gradientUnits="userSpaceOnUse">
<stop stop-color="#FFA774"/>
<stop offset="1" stop-color="#FE875E"/>
</linearGradient>
<radialGradient id="paint5_radial_101_2" cx="0" cy="0" r="1" gradientUnits="userSpaceOnUse" gradientTransform="translate(387.7 715.181) scale(65.7 65.636)">
<stop stop-color="white"/>
<stop offset="1" stop-color="#D32F31"/>
</radialGradient>
<linearGradient id="paint6_linear_101_2" x1="351.069" y1="649.074" x2="366.106" y2="633.902" gradientUnits="userSpaceOnUse">
<stop stop-color="#964620"/>
<stop offset="1" stop-color="#98341A"/>
</linearGradient>
<linearGradient id="paint7_linear_101_2" x1="409.106" y1="677.191" x2="374.106" y2="642.435" gradientUnits="userSpaceOnUse">
<stop stop-color="#964621"/>
<stop offset="1" stop-color="#973417"/>
</linearGradient>
<linearGradient id="paint8_linear_101_2" x1="253.914" y1="1045.6" x2="301.146" y2="998.538" gradientUnits="userSpaceOnUse">
<stop stop-color="#FE875E"/>
<stop offset="1" stop-color="#FFA774"/>
</linearGradient>
<linearGradient id="paint9_linear_101_2" x1="752.078" y1="487.893" x2="753.878" y2="486.095" gradientUnits="userSpaceOnUse">
<stop stop-color="#401441"/>
<stop offset="1" stop-color="#4E254F"/>
</linearGradient>
<linearGradient id="paint10_linear_101_2" x1="636.76" y1="547.797" x2="732.44" y2="451.333" gradientUnits="userSpaceOnUse">
<stop stop-color="#401441"/>
<stop offset="1" stop-color="#5E229D"/>
</linearGradient>
<linearGradient id="paint11_linear_101_2" x1="716.31" y1="549.592" x2="772.929" y2="492.745" gradientUnits="userSpaceOnUse">
<stop stop-color="#FF9D1F"/>
<stop offset="1" stop-color="#FF9D3B"/>
</linearGradient>
<linearGradient id="paint12_linear_101_2" x1="733.826" y1="380.104" x2="913.57" y2="199.074" gradientUnits="userSpaceOnUse">
<stop stop-color="#FF9D1F"/>
<stop offset="1" stop-color="#FF9D3B"/>
</linearGradient>
<linearGradient id="paint13_linear_101_2" x1="815.68" y1="350.397" x2="939.38" y2="227.163" gradientUnits="userSpaceOnUse">
<stop stop-color="#3A1B43"/>
<stop offset="1" stop-color="#3E0732"/>
</linearGradient>
<linearGradient id="paint14_linear_101_2" x1="475.491" y1="995.356" x2="588.827" y2="881.249" gradientUnits="userSpaceOnUse">
<stop stop-color="#FF9D1F"/>
<stop offset="1" stop-color="#FF9D3B"/>
</linearGradient>
<linearGradient id="paint15_linear_101_2" x1="449.811" y1="1156.1" x2="616.312" y2="989.107" gradientUnits="userSpaceOnUse">
<stop stop-color="#924593"/>
<stop offset="1" stop-color="#581F8D"/>
</linearGradient>
<linearGradient id="paint16_linear_101_2" x1="402.995" y1="1052.83" x2="455.676" y2="1000.03" gradientUnits="userSpaceOnUse">
<stop stop-color="#FF9D1F"/>
<stop offset="1" stop-color="#FF9D3B"/>
</linearGradient>
<linearGradient id="paint17_linear_101_2" x1="786.563" y1="982.005" x2="907.569" y2="860.341" gradientUnits="userSpaceOnUse">
<stop stop-color="#FF9D1F"/>
<stop offset="1" stop-color="#FF9D3B"/>
</linearGradient>
<radialGradient id="paint18_radial_101_2" cx="0" cy="0" r="1" gradientUnits="userSpaceOnUse" gradientTransform="translate(326.213 679.884) scale(4.86911 5.28185)">
<stop stop-color="white"/>
<stop offset="1" stop-color="#BF4042"/>
</radialGradient>
<radialGradient id="paint19_radial_101_2" cx="0" cy="0" r="1" gradientUnits="userSpaceOnUse" gradientTransform="translate(328.121 674.409) scale(12.5165 9.19628)">
<stop stop-color="#FF5E42"/>
<stop offset="1" stop-color="white"/>
</radialGradient>
<linearGradient id="paint20_linear_101_2" x1="362.653" y1="676.491" x2="362.653" y2="704.091" gradientUnits="userSpaceOnUse">
<stop stop-color="#6E90EA"/>
<stop offset="1" stop-color="#0045FE"/>
</linearGradient>
<linearGradient id="paint21_linear_101_2" x1="331.587" y1="649.791" x2="331.587" y2="665.947" gradientUnits="userSpaceOnUse">
<stop stop-color="#5671B8"/>
<stop offset="1" stop-color="#0045FE"/>
</linearGradient>
<linearGradient id="paint22_linear_101_2" x1="302.017" y1="716.515" x2="325.475" y2="693.28" gradientUnits="userSpaceOnUse">
<stop stop-color="#5E229D"/>
<stop offset="1" stop-color="#4E254F"/>
</linearGradient>
<linearGradient id="paint23_linear_101_2" x1="457.546" y1="956.188" x2="431.246" y2="930.12" gradientUnits="userSpaceOnUse">
<stop stop-color="white"/>
<stop offset="1" stop-color="#BF4042"/>
</linearGradient>
<linearGradient id="paint24_linear_101_2" x1="480" y1="978" x2="431.196" y2="927.431" gradientUnits="userSpaceOnUse">
<stop stop-color="#BF4042"/>
<stop offset="1" stop-color="white"/>
</linearGradient>
<linearGradient id="paint25_linear_101_2" x1="656.098" y1="834.589" x2="643.798" y2="822.404" gradientUnits="userSpaceOnUse">
<stop stop-color="#BF4042"/>
<stop offset="1" stop-color="white"/>
</linearGradient>
<linearGradient id="paint26_linear_101_2" x1="812.503" y1="701.691" x2="787.103" y2="676.522" gradientUnits="userSpaceOnUse">
<stop stop-color="white"/>
<stop offset="1" stop-color="#BF4042"/>
</linearGradient>
<linearGradient id="paint27_linear_101_2" x1="1619.23" y1="1834.04" x2="1796.55" y2="1656.23" gradientUnits="userSpaceOnUse">
<stop stop-color="#BF4042"/>
<stop offset="1" stop-color="white"/>
</linearGradient>
<linearGradient id="paint28_linear_101_2" x1="938.615" y1="1071.56" x2="1111.91" y2="895.39" gradientUnits="userSpaceOnUse">
<stop stop-color="#BF4042"/>
<stop offset="1" stop-color="white"/>
</linearGradient>
<linearGradient id="paint29_linear_101_2" x1="741.192" y1="542.193" x2="763.792" y2="519.521" gradientUnits="userSpaceOnUse">
<stop stop-color="#BF4042"/>
<stop offset="1" stop-color="white"/>
</linearGradient>
<linearGradient id="paint30_linear_101_2" x1="712.428" y1="488.994" x2="740.628" y2="460.529" gradientUnits="userSpaceOnUse">
<stop stop-color="#BF4042"/>
<stop offset="1" stop-color="white"/>
</linearGradient>
<linearGradient id="paint31_linear_101_2" x1="833.876" y1="404.795" x2="845.976" y2="392.61" gradientUnits="userSpaceOnUse">
<stop stop-color="#BF4042"/>
<stop offset="1" stop-color="white"/>
</linearGradient>
<linearGradient id="paint32_linear_101_2" x1="788.633" y1="289.296" x2="870.332" y2="207.198" gradientUnits="userSpaceOnUse">
<stop stop-color="#BF4042"/>
<stop offset="1" stop-color="white"/>
</linearGradient>
<linearGradient id="paint33_linear_101_2" x1="767.859" y1="593.693" x2="783.359" y2="578.11" gradientUnits="userSpaceOnUse">
<stop stop-color="#BF4042"/>
<stop offset="1" stop-color="white"/>
</linearGradient>
<linearGradient id="paint34_linear_101_2" x1="60.9403" y1="916.788" x2="70.0404" y2="907.599" gradientUnits="userSpaceOnUse">
<stop stop-color="#BF4042"/>
<stop offset="1" stop-color="white"/>
</linearGradient>
<linearGradient id="paint35_linear_101_2" x1="28.5228" y1="887.828" x2="49.2845" y2="866.996" gradientUnits="userSpaceOnUse">
<stop stop-color="#BF4042"/>
<stop offset="1" stop-color="white"/>
</linearGradient>
<linearGradient id="paint36_linear_101_2" x1="264.486" y1="1020.19" x2="269.086" y2="1015.49" gradientUnits="userSpaceOnUse">
<stop stop-color="white"/>
<stop offset="1" stop-color="#BF4042"/>
</linearGradient>
<linearGradient id="paint37_linear_101_2" x1="260.758" y1="1052.73" x2="286.744" y2="1026.57" gradientUnits="userSpaceOnUse">
<stop stop-color="#BF4042"/>
<stop offset="1" stop-color="white"/>
</linearGradient>
<linearGradient id="paint38_linear_101_2" x1="235.744" y1="1027.17" x2="265.46" y2="997.293" gradientUnits="userSpaceOnUse">
<stop stop-color="#BF4042"/>
<stop offset="1" stop-color="white"/>
</linearGradient>
<linearGradient id="paint39_linear_101_2" x1="232.326" y1="993.687" x2="250.926" y2="975.11" gradientUnits="userSpaceOnUse">
<stop stop-color="#BF4042"/>
<stop offset="1" stop-color="white"/>
</linearGradient>
<linearGradient id="paint40_linear_101_2" x1="597.436" y1="461.89" x2="513.923" y2="379.289" gradientUnits="userSpaceOnUse">
<stop stop-color="#822B10"/>
<stop offset="1" stop-color="#B84F22"/>
</linearGradient>
<linearGradient id="paint41_linear_101_2" x1="485.877" y1="554.397" x2="553.197" y2="486.502" gradientUnits="userSpaceOnUse">
<stop stop-color="#C85C36"/>
<stop offset="1" stop-color="#983310"/>
</linearGradient>
<linearGradient id="paint42_linear_101_2" x1="506.795" y1="802.832" x2="730.141" y2="577.893" gradientUnits="userSpaceOnUse">
<stop stop-color="#8F4F2B"/>
<stop offset="1" stop-color="#A83200"/>
</linearGradient>
<linearGradient id="paint43_linear_101_2" x1="390.886" y1="650.215" x2="489.027" y2="551.552" gradientUnits="userSpaceOnUse">
<stop stop-color="#9A3412"/>
<stop offset="1" stop-color="#994218"/>
</linearGradient>
<linearGradient id="paint44_linear_101_2" x1="569.529" y1="666.799" x2="463.329" y2="561.409" gradientUnits="userSpaceOnUse">
<stop stop-color="#FE875E"/>
<stop offset="1" stop-color="#FF834F"/>
</linearGradient>
<linearGradient id="paint45_linear_101_2" x1="520.78" y1="714.9" x2="430.079" y2="624.894" gradientUnits="userSpaceOnUse">
<stop stop-color="#FF6832"/>
<stop offset="1" stop-color="#FF6832"/>
</linearGradient>
<linearGradient id="paint46_linear_101_2" x1="494.707" y1="720.3" x2="421.306" y2="647.476" gradientUnits="userSpaceOnUse">
<stop stop-color="#FE875E"/>
<stop offset="1" stop-color="#FF834F"/>
</linearGradient>
<linearGradient id="paint47_linear_101_2" x1="462.74" y1="516.997" x2="430.54" y2="485.13" gradientUnits="userSpaceOnUse">
<stop stop-color="#FFA774"/>
<stop offset="1" stop-color="#FF946F"/>
</linearGradient>
<linearGradient id="paint48_linear_101_2" x1="627.17" y1="610.698" x2="516.569" y2="501.012" gradientUnits="userSpaceOnUse">
<stop stop-color="#FF6832"/>
<stop offset="0.9999" stop-color="#8E609D"/>
<stop offset="1" stop-color="#8B5C9A"/>
<stop offset="1"/>
</linearGradient>
<linearGradient id="paint49_linear_101_2" x1="426.178" y1="587.498" x2="400.477" y2="561.925" gradientUnits="userSpaceOnUse">
<stop stop-color="#FF6832"/>
<stop offset="1" stop-color="white"/>
</linearGradient>
<linearGradient id="paint50_linear_101_2" x1="605.792" y1="496.097" x2="541.691" y2="432.463" gradientUnits="userSpaceOnUse">
<stop stop-color="white"/>
<stop offset="1" stop-color="#754328"/>
</linearGradient>
<linearGradient id="paint51_linear_101_2" x1="548.551" y1="688" x2="516.65" y2="656.333" gradientUnits="userSpaceOnUse">
<stop stop-color="#804E33"/>
<stop offset="1" stop-color="white"/>
</linearGradient>
<linearGradient id="paint52_linear_101_2" x1="648.648" y1="573.698" x2="601.047" y2="526.447" gradientUnits="userSpaceOnUse">
<stop stop-color="#754328"/>
<stop offset="1" stop-color="#FF834F"/>
</linearGradient>
<linearGradient id="paint53_linear_101_2" x1="498.35" y1="725.064" x2="610.066" y2="612.724" gradientUnits="userSpaceOnUse">
<stop stop-color="#974520"/>
<stop offset="1" stop-color="#902F1A"/>
</linearGradient>
<linearGradient id="paint54_linear_101_2" x1="491.427" y1="716.331" x2="595.669" y2="611.213" gradientUnits="userSpaceOnUse">
<stop stop-color="#953615"/>
<stop offset="1" stop-color="#BA571F"/>
</linearGradient>
<linearGradient id="paint55_linear_101_2" x1="476.578" y1="696.048" x2="529.436" y2="642.939" gradientUnits="userSpaceOnUse">
<stop stop-color="#943615"/>
<stop offset="1" stop-color="#B15030"/>
</linearGradient>
<linearGradient id="paint56_linear_101_2" x1="566.033" y1="794.101" x2="737.637" y2="621.578" gradientUnits="userSpaceOnUse">
<stop stop-color="#963514"/>
<stop offset="1" stop-color="#FE875E"/>
</linearGradient>
<linearGradient id="paint57_linear_101_2" x1="490.444" y1="724.714" x2="655.722" y2="558.118" gradientUnits="userSpaceOnUse">
<stop stop-color="#953513"/>
<stop offset="1" stop-color="#FE875E"/>
<stop offset="1" stop-color="#FF5C00"/>
</linearGradient>
<linearGradient id="paint58_linear_101_2" x1="506.076" y1="575.981" x2="587.646" y2="493.336" gradientUnits="userSpaceOnUse">
<stop stop-color="#FF6832"/>
<stop offset="1" stop-color="#691C00"/>
</linearGradient>
<linearGradient id="paint59_linear_101_2" x1="437.166" y1="712.9" x2="471.467" y2="678.435" gradientUnits="userSpaceOnUse">
<stop stop-color="#BA471F"/>
<stop offset="0.9999" stop-color="#953514"/>
<stop offset="1" stop-color="#BA471F"/>
</linearGradient>
<linearGradient id="paint60_linear_101_2" x1="426.793" y1="707.521" x2="408.769" y2="689.77" gradientUnits="userSpaceOnUse">
<stop stop-color="#401441"/>
<stop offset="1" stop-color="#4E254F"/>
</linearGradient>
<linearGradient id="paint61_linear_101_2" x1="426.484" y1="765.891" x2="460.185" y2="731.433" gradientUnits="userSpaceOnUse">
<stop stop-color="#FFA774"/>
<stop offset="1" stop-color="#FE875E"/>
</linearGradient>
<linearGradient id="paint62_linear_101_2" x1="420.292" y1="746.29" x2="439.593" y2="726.615" gradientUnits="userSpaceOnUse">
<stop stop-color="white"/>
<stop offset="1" stop-color="#BF4042"/>
</linearGradient>
<linearGradient id="paint63_linear_101_2" x1="417.396" y1="741.791" x2="433.196" y2="725.71" gradientUnits="userSpaceOnUse">
<stop stop-color="white"/>
<stop offset="1" stop-color="#BF4042"/>
</linearGradient>
<linearGradient id="paint64_linear_101_2" x1="467.633" y1="583.192" x2="399.035" y2="515.078" gradientUnits="userSpaceOnUse">
<stop/>
<stop offset="1" stop-color="white"/>
</linearGradient>
<linearGradient id="paint65_linear_101_2" x1="647.808" y1="565.992" x2="566.01" y2="484.794" gradientUnits="userSpaceOnUse">
<stop stop-color="white"/>
<stop offset="1"/>
</linearGradient>
<radialGradient id="paint66_radial_101_2" cx="0" cy="0" r="1" gradientUnits="userSpaceOnUse" gradientTransform="translate(373.987 711.917) scale(22.4501 13.4879)">
<stop stop-color="#FE7F55"/>
<stop offset="1" stop-color="#F58470" stop-opacity="0"/>
</radialGradient>
<radialGradient id="paint67_radial_101_2" cx="0" cy="0" r="1" gradientUnits="userSpaceOnUse" gradientTransform="translate(325.978 660.407) scale(7.83144 7.97011)">
<stop stop-color="#FFA682"/>
<stop offset="1" stop-color="#F58470" stop-opacity="0"/>
</radialGradient>
<clipPath id="clip0_101_2">
<rect width="871" height="1041" fill="white"/>
</clipPath>
</defs>
</svg>
