<svg width="10" height="10" viewBox="0 0 10 10" fill="none" xmlns="http://www.w3.org/2000/svg">
<path d="M0.632947 3.47529H2.49648V9.44235H0.632947V3.47529ZM1.5553 0.501175C2.15766 0.501175 2.64707 0.990586 2.64707 1.57412C2.64707 2.17647 2.15766 2.66588 1.5553 2.66588C0.971775 2.66588 0.482361 2.17647 0.482361 1.57412C0.482361 0.990586 0.971775 0.501175 1.5553 0.501175Z" fill="white"/>
<path d="M3.66351 3.47529H5.43293V4.2847H5.47057C5.82822 3.66353 6.50587 3.28706 7.22116 3.32471C9.10351 3.32471 9.46116 4.54823 9.46116 6.16706V9.44235H7.59763V6.54353C7.59763 5.84706 7.57881 4.94353 6.63763 4.94353C5.67763 4.94353 5.52704 5.69647 5.52704 6.48706V9.44235H3.66351V3.47529Z" fill="white"/>
</svg>
