<svg width="10" height="10" viewBox="0 0 10 10" fill="none" xmlns="http://www.w3.org/2000/svg">
<g clip-path="url(#clip0_139_11)">
<path d="M0.632947 3.47527H2.49648V9.44234H0.632947V3.47527ZM1.5553 0.50116C2.15766 0.50116 2.64707 0.990571 2.64707 1.5741C2.64707 2.17645 2.15766 2.66586 1.5553 2.66586C0.971775 2.66586 0.482361 2.17645 0.482361 1.5741C0.482361 0.990571 0.971775 0.50116 1.5553 0.50116Z" fill="#3D0D31"/>
<path d="M3.66351 3.47531H5.43293V4.28472H5.47057C5.82822 3.66355 6.50587 3.28708 7.22116 3.32473C9.10351 3.32473 9.46116 4.54825 9.46116 6.16708V9.44237H7.59763V6.54355C7.59763 5.84708 7.57881 4.94355 6.63763 4.94355C5.67763 4.94355 5.52704 5.69649 5.52704 6.48708V9.44237H3.66351V3.47531Z" fill="#3D0D31"/>
</g>
<defs>
<clipPath id="clip0_139_11">
<rect width="10" height="10" fill="white"/>
</clipPath>
</defs>
</svg>
