<svg width="19" height="19" viewBox="0 0 19 19" fill="none" xmlns="http://www.w3.org/2000/svg">
<path d="M9.49317 0.632942C4.55417 0.632942 0.52002 4.7807 0.52002 9.85881C0.52002 13.8127 3.00837 17.3403 6.6655 18.6195C7.11793 18.697 7.26874 18.3869 7.26874 18.1543C7.26874 17.9217 7.26874 17.224 7.26874 16.4487C4.78038 16.9914 4.25255 15.3633 4.25255 15.3633C3.83782 14.2779 3.27229 14.0066 3.27229 14.0066C2.44284 13.4251 3.30999 13.4639 3.30999 13.4639C3.91323 13.5414 4.40336 13.8903 4.70498 14.3942C5.49673 15.8285 6.81631 15.4021 7.30644 15.1695C7.34414 14.7043 7.57035 14.2779 7.87197 13.929C5.87375 13.6965 3.80012 12.9212 3.80012 9.39364C3.76242 8.4633 4.10174 7.57172 4.70498 6.91273C4.44106 6.09869 4.47876 5.24587 4.81808 4.47059C4.81808 4.47059 5.57213 4.19924 7.26874 5.40093C8.73913 5.01329 10.2849 5.01329 11.7553 5.40093C13.4896 4.19924 14.2437 4.47059 14.2437 4.47059C14.583 5.24587 14.583 6.09869 14.3191 6.91273C14.9223 7.57172 15.2616 8.4633 15.2616 9.39364C15.2616 12.9212 13.1503 13.6965 11.1521 13.929C11.5668 14.3942 11.793 15.0144 11.7553 15.6347C11.7553 16.8751 11.7553 17.883 11.7553 18.1543C11.7553 18.4257 11.9061 18.697 12.3585 18.6195C17.0713 16.9914 19.6351 11.797 18.0516 6.9515C16.8451 3.19137 13.4142 0.632942 9.53088 0.632942H9.49317Z" fill="white"/>
<path d="M3.91319 13.8903C3.91319 13.929 3.83778 13.929 3.76238 13.8903C3.68697 13.8903 3.64927 13.8128 3.68697 13.774C3.68697 13.6965 3.76238 13.6965 3.83778 13.7352C3.91319 13.774 3.95089 13.8128 3.91319 13.8903Z" fill="white"/>
<path d="M4.29016 14.2779C4.25246 14.3167 4.13935 14.3167 4.10165 14.2391C4.02625 14.2004 4.02625 14.1229 4.06395 14.0453C4.10165 14.0066 4.17706 14.0453 4.25246 14.0841C4.32787 14.1616 4.32787 14.2391 4.29016 14.2779Z" fill="white"/>
<path d="M4.62953 14.8206C4.59182 14.8594 4.47872 14.8206 4.44101 14.7431C4.36561 14.6656 4.36561 14.5493 4.44101 14.5105C4.47872 14.4717 4.59182 14.5105 4.62953 14.588C4.70493 14.6656 4.70493 14.7818 4.62953 14.8206Z" fill="white"/>
<path d="M5.11965 15.3245C5.08195 15.4021 4.96884 15.3633 4.89344 15.2858C4.81804 15.247 4.78033 15.1307 4.85574 15.0532C4.89344 15.0144 5.00655 15.0144 5.08195 15.092C5.15736 15.1695 5.15736 15.2858 5.11965 15.3245Z" fill="white"/>
<path d="M5.79833 15.6347C5.76063 15.7122 5.68522 15.751 5.57212 15.7122C5.45901 15.6734 5.3836 15.5959 5.42131 15.5184C5.42131 15.4408 5.53441 15.4021 5.64752 15.4408C5.76063 15.4796 5.79833 15.5571 5.79833 15.6347Z" fill="white"/>
<path d="M6.5146 15.6734C6.5146 15.751 6.43919 15.8285 6.32608 15.8285C6.21298 15.8285 6.13757 15.7897 6.13757 15.7122C6.13757 15.6347 6.21298 15.5571 6.32608 15.5571C6.43919 15.5571 6.5146 15.6347 6.5146 15.6734Z" fill="white"/>
<path d="M7.19325 15.5571C7.19325 15.6347 7.15554 15.7122 7.04244 15.751C6.92933 15.751 6.85393 15.7122 6.81622 15.6347C6.81622 15.5571 6.89163 15.4796 7.00473 15.4796C7.08014 15.4408 7.19325 15.4796 7.19325 15.5571Z" fill="white"/>
</svg>
